<svg xmlns="http://www.w3.org/2000/svg" width="103.84" height="32.4" viewBox="0 0 103.84 32.4"><title>cta</title><rect width="103.84" height="32.4"/><path d="M14.29,13h2.05a2.08,2.08,0,0,1,2.35,1.79,2,2,0,0,1,0,.65V17A2.11,2.11,0,0,1,17,19.44a2.29,2.29,0,0,1-.64,0H14.29Zm1.93,5.8c1.18,0,1.71-.57,1.71-1.9V15.51c0-1.34-.53-1.93-1.71-1.9H15v5.18Z" fill="#fff"/><path d="M21.07,13h.74v6.42h-.74Z" fill="#fff"/><path d="M24.42,18.17a1.72,1.72,0,0,0,1.58.69c.94,0,1.48-.42,1.48-1.15a1,1,0,0,0-.39-.83c-.24-.17-.24-.17-1.19-.4-1.32-.34-1.84-.85-1.84-1.83a1.79,1.79,0,0,1,2-1.75,2.11,2.11,0,0,1,1.85.81l-.57.37A1.53,1.53,0,0,0,26,13.53c-.76,0-1.22.4-1.22,1.08s.38,1,1.48,1.26a3.18,3.18,0,0,1,1.33.48,1.51,1.51,0,0,1,.61,1.33c0,1.17-.79,1.81-2.21,1.81a2.35,2.35,0,0,1-2.17-.94Z" fill="#fff"/><path d="M34.49,17.9c-.07,1-.82,1.59-2.09,1.59a2,2,0,0,1-1.77-.81,3.11,3.11,0,0,1-.38-1.82V15.54a2.87,2.87,0,0,1,.47-1.93,2,2,0,0,1,1.69-.7c1.23,0,2,.59,2,1.62l-.68.06a1.18,1.18,0,0,0-1.29-1.05h0c-1,0-1.43.59-1.43,2v1.24c0,1.47.41,2,1.44,2a1.21,1.21,0,0,0,1.36-1Z" fill="#fff"/><path d="M36.63,15.41a2.54,2.54,0,0,1,.53-1.84,2.54,2.54,0,0,1,3.56.11,2.65,2.65,0,0,1,.43,1.73V17a2.54,2.54,0,0,1-.53,1.84,2.16,2.16,0,0,1-1.73.66,2.09,2.09,0,0,1-1.82-.77A2.6,2.6,0,0,1,36.63,17Zm3.77.07a2.13,2.13,0,0,0-.35-1.43,1.55,1.55,0,0,0-2.2-.12,1.8,1.8,0,0,0-.19.2,2.43,2.43,0,0,0-.28,1.35v1.44a2.13,2.13,0,0,0,.35,1.43,1.3,1.3,0,0,0,1.16.51,1.35,1.35,0,0,0,1.22-.59,2.35,2.35,0,0,0,.29-1.35Z" fill="#fff"/><path d="M42.78,13h.75l1.7,5.33L46.93,13h.76l-2.14,6.42h-.63Z" fill="#fff"/><path d="M49.66,13h3.75v.62h-3v2.24H53v.63H50.4v2.3h3v.63H49.66Z" fill="#fff"/><path d="M56.3,19.41h-.74V13h2.2a2,2,0,0,1,1.53.46,1.76,1.76,0,0,1,.46,1.33c0,1.05-.42,1.61-1.32,1.78l1.41,2.85H59l-1.32-2.77H56.3ZM57.77,16c.84,0,1.23-.39,1.23-1.21s-.41-1.2-1.31-1.2h-1.4V16Z" fill="#fff"/><path d="M64.51,13h.72l2,4.2,2-4.2H70v6.42h-.72v-5L67.49,18.1H67l-1.78-3.65v5H64.5Z" fill="#fff"/><path d="M72.38,15.41a2.54,2.54,0,0,1,.53-1.84,2.54,2.54,0,0,1,3.55.11,2.65,2.65,0,0,1,.44,1.73V17a2.46,2.46,0,0,1-.54,1.84,2.55,2.55,0,0,1-3.54-.11A2.6,2.6,0,0,1,72.38,17Zm3.77.07a2.13,2.13,0,0,0-.35-1.43,1.55,1.55,0,0,0-2.2-.12,1.8,1.8,0,0,0-.19.2,2.35,2.35,0,0,0-.29,1.35v1.44a2.13,2.13,0,0,0,.35,1.43,1.33,1.33,0,0,0,1.17.51,1.35,1.35,0,0,0,1.22-.59,2.35,2.35,0,0,0,.29-1.35Z" fill="#fff"/><path d="M80,19.41h-.7V13h2.2a2,2,0,0,1,1.53.46,1.76,1.76,0,0,1,.46,1.33c0,1.05-.42,1.61-1.32,1.78l1.41,2.85h-.83l-1.32-2.77H80ZM81.51,16c.84,0,1.23-.39,1.23-1.21s-.41-1.2-1.31-1.2H80V16Z" fill="#fff"/><path d="M85.79,13h3.75v.62h-3v2.24H89.1v.63H86.52v2.3h3v.63H85.79Z" fill="#fff"/></svg>