<svg xmlns="http://www.w3.org/2000/svg" viewBox="0 0 200 48.27"><defs><style>.cls-1{fill:#fff;}</style></defs><title>FJVC_logo_white</title><g id="Layer_2" data-name="Layer 2"><g id="Layer_1-2" data-name="Layer 1"><path class="cls-1" d="M100.44,0h9.67V.83h-.63a1.85,1.85,0,0,0-1.33.43,1.46,1.46,0,0,0-.46,1.14,4.79,4.79,0,0,0,.47,1.86l4.78,11.36,4.8-11.78a5.7,5.7,0,0,0,.51-1.91.72.72,0,0,0-.17-.51,1.32,1.32,0,0,0-.63-.47A6.33,6.33,0,0,0,115.9.83V0h6.71V.83A3,3,0,0,0,121,1.3a5.81,5.81,0,0,0-1.41,2.25l-7.29,17.63h-.92L104,3.84a6.65,6.65,0,0,0-.94-1.74A3.8,3.8,0,0,0,102,1.21a6,6,0,0,0-1.51-.38Z"/><polygon class="cls-1" points="55.72 1.45 55.72 10.14 65.27 10.14 65.27 11.57 55.72 11.57 55.72 21.16 54.11 21.16 54.11 0.03 66.93 0.03 66.93 1.45 55.72 1.45"/><rect class="cls-1" x="82.88" y="0.03" width="1.6" height="21.13"/><polygon class="cls-1" points="137.7 21.16 137.7 0.03 150.52 0.03 150.52 1.45 139.31 1.45 139.31 9.79 148.86 9.79 148.86 11.21 139.31 11.21 139.31 19.73 150.52 19.73 150.52 21.16 137.7 21.16"/><path class="cls-1" d="M200,39.38h-.94v8.81H200Zm-6.82,6h-3.3l1.66-4.65Zm2,2.81-3.23-8.81h-.79l-3.25,8.81h1l.71-2h3.85l.71,2Zm-11.85-6.45c0,1-.75,1.54-1.73,1.54h-2.31V40.22h2.31c1,0,1.73.47,1.73,1.52m.14,4a1.58,1.58,0,0,1-1.77,1.62h-2.41V44.12h2.41a1.58,1.58,0,0,1,1.77,1.61m.94,0A2.14,2.14,0,0,0,183,43.66a2,2,0,0,0,1.3-1.93,2.32,2.32,0,0,0-2.6-2.35h-3.32v8.81h3.43a2.34,2.34,0,0,0,2.63-2.44m-11-.47v-5.9h-.94v5.83a2.14,2.14,0,1,1-4.27,0V39.38h-.94v5.9a3.08,3.08,0,0,0,6.15,0m-11.66-1.5c0,1.23,0,2.32-.58,2.93a2.24,2.24,0,0,1-1.74.64h-1.92V40.22h1.92a2.24,2.24,0,0,1,1.74.64c.57.61.58,1.7.58,2.92m.94,0c0-1.34,0-2.63-.78-3.47a2.92,2.92,0,0,0-2.32-.93h-3v8.81h3a2.92,2.92,0,0,0,2.32-.93c.78-.84.78-2.13.78-3.48M146.6,48.19v-.84h-4.53V44.17h3.86v-.84h-3.86V40.22h4.53v-.84h-5.47v8.81ZM136.46,45v-1.4h-3.11v.8h2.17v.68a2.41,2.41,0,0,1-.49,1.6,2.17,2.17,0,0,1-1.68.75,2.09,2.09,0,0,1-1.52-.61c-.56-.57-.62-1.22-.62-3s.06-2.45.62-3a2.18,2.18,0,0,1,3.67,1.18h.94a3,3,0,0,0-3.09-2.64,3,3,0,0,0-2.2.87c-.83.83-.88,1.6-.88,3.61s0,2.79.88,3.62a3,3,0,0,0,2.2.87,3.12,3.12,0,0,0,2.36-1,3,3,0,0,0,.75-2.26m-11.61.39h-3.29l1.65-4.65Zm2,2.81-3.23-8.81h-.79l-3.25,8.81h1l.71-2h3.85l.71,2Zm-10.26,0v-.84h-4.51v-8h-.94v8.81Zm-9.57,0v-.84h-4.51v-8h-.94v8.81ZM96.52,39.38h-.94v8.81h.94Zm-4.79,0h-1l-2.29,7.13-2.29-7.13h-1l2.89,8.81h.77Zm-16,8.81V39.38h-.94v3.95H70.63V39.38h-.94v8.81h.94v-4h4.19v4Zm-12-2.81H60.52l1.66-4.65Zm2,2.81-3.23-8.81h-.79l-3.25,8.81h1l.7-2h3.85l.71,2ZM54.1,41.84a1.55,1.55,0,0,1-1.75,1.61H50V40.22h2.36a1.55,1.55,0,0,1,1.75,1.62m1.12,6.35-2.09-4a2.28,2.28,0,0,0,1.92-2.36,2.39,2.39,0,0,0-2.62-2.45H49.05v8.81H50V44.28h2.12l2,3.91ZM44,39.38h-.94v8.81H44Zm-5.38,8.81v-.84H34.12V44.17H38v-.84H34.12V40.22h4.53v-.84H33.18v8.81Zm-10.5,0V39.38h-.94l-2.79,6.25-2.88-6.25H20.6v8.81h.94v-6.7L24,46.81h.81l2.41-5.32v6.7ZM15.7,45.28v-5.9h-.94v5.83a2.05,2.05,0,0,1-2.14,2.21,2,2,0,0,1-2.13-2.21V39.38H9.55v5.9a2.91,2.91,0,0,0,3.07,3,2.92,2.92,0,0,0,3.08-3m-10.93.24V39.38H3.83v6c0,1.3-.66,2-1.81,2a1.73,1.73,0,0,1-1.39-.58L0,47.47a2.65,2.65,0,0,0,2,.8,2.6,2.6,0,0,0,2.75-2.75"/></g></g></svg>