<svg xmlns="http://www.w3.org/2000/svg" viewBox="0 0 258.19 56.66"><defs><style>.cls-1{fill:#fff;}</style></defs><title>GBP</title><g id="Layer_2" data-name="Layer 2"><g id="Layer_1-2" data-name="Layer 1"><path class="cls-1" d="M11.46,17.3H.59V.14H3.2V15h8.26Z"/><path class="cls-1" d="M19.68,17.3h-2.6V.14h2.6Z"/><path class="cls-1" d="M38,.14,32.36,17.3h-2L24.69.14h2.7l3.95,12.49L35.3.14Z"/><path class="cls-1" d="M54,17.3h-11V.14H54V2.48H45.66v5h7.13V9.81H45.66V15H54Z"/><path class="cls-1" d="M79,2.48H74.24V17.3h-2.6V2.48H66.91V.14H79Z"/><path class="cls-1" d="M96.75,17.3h-2.6V9.81h-7V17.3h-2.6V.14h2.6V7.47h7V.14h2.6Z"/><path class="cls-1" d="M114.85,17.3h-11V.14h11V2.48h-8.36v5h7.13V9.81h-7.13V15h8.36Z"/><path class="cls-1" d="M141.43,17.3h-2.6V9.81h-7V17.3h-2.6V.14h2.6V7.47h7V.14h2.6Z"/><path class="cls-1" d="M151.17,17.3h-2.61V.14h2.61Z"/><path class="cls-1" d="M170.11,10.65a6.89,6.89,0,0,1-1.54,4.85,6.26,6.26,0,0,1-4.73,1.95,6.12,6.12,0,0,1-4.5-1.83,4.7,4.7,0,0,1-.82-1.1,8.93,8.93,0,0,1-.5-1.07,5.53,5.53,0,0,1-.25-1.4c-.05-.61-.08-1.1-.08-1.47s0-1,0-1.86,0-1.48,0-1.85,0-.86.08-1.47A5.53,5.53,0,0,1,158,4a8.93,8.93,0,0,1,.5-1.07,4.5,4.5,0,0,1,.82-1.1A6.12,6.12,0,0,1,163.84,0a6,6,0,0,1,4.23,1.49,6.42,6.42,0,0,1,2,3.84h-2.62a4,4,0,0,0-1.27-2.21,3.53,3.53,0,0,0-2.35-.78,3.29,3.29,0,0,0-2.53,1.06,3.56,3.56,0,0,0-.83,1.72,21,21,0,0,0-.2,3.6,21.33,21.33,0,0,0,.2,3.62,3.55,3.55,0,0,0,.83,1.73,3.28,3.28,0,0,0,2.53,1,3.56,3.56,0,0,0,2.8-1.2,4,4,0,0,0,.87-2.7v-1h-3.67V8h6.27Z"/><path class="cls-1" d="M188.76,17.3h-2.6V9.81h-7V17.3h-2.6V.14h2.6V7.47h7V.14h2.6Z"/><path class="cls-1" d="M215,17.3H204.09V.14h2.6V15H215Z"/><path class="cls-1" d="M223.18,17.3h-2.61V.14h2.61Z"/><path class="cls-1" d="M241.28,2.48h-8.37V7.71h7.14v2.34h-7.14V17.3h-2.6V.14h11Z"/><path class="cls-1" d="M258,17.3h-11V.14h11V2.48h-8.36v5h7.13V9.81h-7.13V15H258Z"/><path class="cls-1" d="M4.32,29.62a2.23,2.23,0,0,1,0,3.11,2.26,2.26,0,0,1-1.62.59H.78v3H0V29H2.7A2.29,2.29,0,0,1,4.32,29.62Zm-.57,2.63a1.37,1.37,0,0,0,.42-1.08,1.35,1.35,0,0,0-.42-1.07,1.66,1.66,0,0,0-1.12-.36H.78v2.88H2.63A1.61,1.61,0,0,0,3.75,32.25Z"/><path class="cls-1" d="M12.63,36.3h-.91l-1.65-3.22H8.32V36.3H7.55V29h2.78a2.2,2.2,0,0,1,1.56.55,1.87,1.87,0,0,1,.59,1.47,2,2,0,0,1-.42,1.29A2,2,0,0,1,10.9,33Zm-1.31-4.24a1.25,1.25,0,0,0,.39-1,1.23,1.23,0,0,0-.4-1,1.53,1.53,0,0,0-1.05-.34H8.32V32.4h1.94A1.62,1.62,0,0,0,11.32,32.06Z"/><path class="cls-1" d="M16.14,36.3h-.78V29h.78Z"/><path class="cls-1" d="M23.8,29,21.41,36.3h-.63L18.39,29h.82l1.88,5.88L23,29Z"/><path class="cls-1" d="M30.75,36.3h-.82l-.59-1.64H26.17l-.58,1.64h-.83L27.44,29h.65ZM29.12,34l-1.35-3.84L26.41,34Z"/><path class="cls-1" d="M36.67,29.74h-2.1V36.3h-.78V29.74h-2.1V29h5Z"/><path class="cls-1" d="M43.66,36.3H39.15V29h4.51v.7H39.92v2.55H43.1V33H39.92v2.62h3.74Z"/><path class="cls-1" d="M54.27,29.62a2.23,2.23,0,0,1,0,3.11,2.26,2.26,0,0,1-1.62.59H50.72v3H50V29h2.7A2.29,2.29,0,0,1,54.27,29.62Zm-.57,2.63a1.37,1.37,0,0,0,.42-1.08,1.35,1.35,0,0,0-.42-1.07,1.66,1.66,0,0,0-1.12-.36H50.72v2.88h1.86A1.61,1.61,0,0,0,53.7,32.25Z"/><path class="cls-1" d="M62.19,30.77a10.63,10.63,0,0,1,.11,1.9,10.76,10.76,0,0,1-.11,1.91,2,2,0,0,1-.57,1,2.64,2.64,0,0,1-3.71,0,1.93,1.93,0,0,1-.58-1,11.84,11.84,0,0,1-.11-1.91,11.69,11.69,0,0,1,.11-1.9,1.89,1.89,0,0,1,.58-1,2.64,2.64,0,0,1,3.71,0A1.94,1.94,0,0,1,62.19,30.77Zm-.76,3.57a9.06,9.06,0,0,0,.1-1.67,9.13,9.13,0,0,0-.1-1.67,1.65,1.65,0,0,0-.41-.81,1.72,1.72,0,0,0-1.26-.52,1.68,1.68,0,0,0-1.25.52,1.58,1.58,0,0,0-.42.81A10.48,10.48,0,0,0,58,32.67a10.4,10.4,0,0,0,.09,1.67,1.51,1.51,0,0,0,.42.81,1.65,1.65,0,0,0,1.25.52A1.68,1.68,0,0,0,61,35.15,1.57,1.57,0,0,0,61.43,34.34Z"/><path class="cls-1" d="M70,30.77a12,12,0,0,1,.1,1.9,12.15,12.15,0,0,1-.1,1.91,2.07,2.07,0,0,1-.58,1,2.64,2.64,0,0,1-3.71,0,1.93,1.93,0,0,1-.58-1A11.84,11.84,0,0,1,65,32.67a11.69,11.69,0,0,1,.11-1.9,1.89,1.89,0,0,1,.58-1,2.64,2.64,0,0,1,3.71,0A2,2,0,0,1,70,30.77Zm-.76,3.57a10.4,10.4,0,0,0,.09-1.67A10.48,10.48,0,0,0,69.19,31a1.75,1.75,0,0,0-.42-.81,1.7,1.7,0,0,0-1.26-.52,1.68,1.68,0,0,0-1.25.52,1.58,1.58,0,0,0-.42.81,10.48,10.48,0,0,0-.09,1.67,10.4,10.4,0,0,0,.09,1.67,1.51,1.51,0,0,0,.42.81,1.65,1.65,0,0,0,1.25.52,1.66,1.66,0,0,0,1.68-1.33Z"/><path class="cls-1" d="M77.49,36.3H73V29h.78v6.57h3.71Z"/><path class="cls-1" d="M84.34,34.3a1.85,1.85,0,0,1-.68,1.51,2.83,2.83,0,0,1-1.83.56,3.81,3.81,0,0,1-1.39-.23,3.16,3.16,0,0,1-1.1-.73l.54-.53a2.58,2.58,0,0,0,.89.61,2.91,2.91,0,0,0,1.08.18,2,2,0,0,0,1.26-.36,1.17,1.17,0,0,0,.46-1,1.14,1.14,0,0,0-.35-.91,1.06,1.06,0,0,0-.36-.22,2.81,2.81,0,0,0-.59-.13l-.85-.13a2.72,2.72,0,0,1-1.33-.55A1.72,1.72,0,0,1,79.54,31a1.91,1.91,0,0,1,.63-1.49A2.44,2.44,0,0,1,81.86,29a3.57,3.57,0,0,1,1.2.18,3.17,3.17,0,0,1,1,.62l-.5.5a2.42,2.42,0,0,0-1.7-.63,1.64,1.64,0,0,0-1.12.37,1.27,1.27,0,0,0-.41,1,1,1,0,0,0,.33.84,1.89,1.89,0,0,0,1,.39l.79.13a2.52,2.52,0,0,1,1.33.51A1.76,1.76,0,0,1,84.34,34.3Z"/><path class="cls-1" d="M95.71,36.3h-.83l-.58-1.64H91.13l-.59,1.64h-.82L92.39,29H93ZM94.07,34l-1.34-3.84L91.36,34Z"/><path class="cls-1" d="M103.37,36.3h-.74l-3.85-5.82V36.3H98V29h.73l3.86,5.8V29h.78Z"/><path class="cls-1" d="M111.63,32.59a10.38,10.38,0,0,1-.13,1.93,2.28,2.28,0,0,1-.59,1.11,2.47,2.47,0,0,1-1.83.67h-2.49V29h2.49a2.51,2.51,0,0,1,1.83.67,2,2,0,0,1,.37.52,4.3,4.3,0,0,1,.21.51,3.18,3.18,0,0,1,.1.64c0,.29,0,.48,0,.57Zm-.78,0c0-.42,0-.73,0-.92a4.06,4.06,0,0,0-.12-.73,1.47,1.47,0,0,0-.35-.67,1.86,1.86,0,0,0-1.42-.53h-1.59v5.87H109a1.9,1.9,0,0,0,1.42-.53,1.57,1.57,0,0,0,.35-.72,5.09,5.09,0,0,0,.12-.79C110.85,33.36,110.85,33,110.85,32.59Z"/><path class="cls-1" d="M123.19,36.3h-.82l-.58-1.64h-3.18L118,36.3h-.82L119.88,29h.65ZM121.56,34l-1.34-3.84L118.85,34Z"/><path class="cls-1" d="M132.84,29,131,36.3h-.73l-1.61-5.81L127,36.3h-.73L124.46,29h.82l1.42,5.86L128.3,29h.7l1.6,5.86L132,29Z"/><path class="cls-1" d="M140.12,36.3h-.82l-.58-1.64h-3.17L135,36.3h-.82L136.81,29h.65ZM138.49,34l-1.34-3.84L135.78,34Z"/><path class="cls-1" d="M147.5,36.3h-.91l-1.65-3.22H143.2V36.3h-.78V29h2.79a2.19,2.19,0,0,1,1.55.55,1.88,1.88,0,0,1,.6,1.47,2,2,0,0,1-.43,1.29,2,2,0,0,1-1.15.66Zm-1.31-4.24a1.25,1.25,0,0,0,.39-1,1.23,1.23,0,0,0-.4-1,1.53,1.53,0,0,0-1.05-.34H143.2V32.4h1.93A1.59,1.59,0,0,0,146.19,32.06Z"/><path class="cls-1" d="M155.27,32.59a9.56,9.56,0,0,1-.13,1.93,2.35,2.35,0,0,1-.58,1.11,2.48,2.48,0,0,1-1.84.67h-2.49V29h2.49a2.52,2.52,0,0,1,1.84.67,2.18,2.18,0,0,1,.36.52,3.08,3.08,0,0,1,.21.51,3,3,0,0,1,.11.64q0,.44,0,.57Zm-.77,0c0-.42,0-.73,0-.92a3.42,3.42,0,0,0-.13-.73,1.46,1.46,0,0,0-.34-.67,1.9,1.9,0,0,0-1.43-.53H151v5.87h1.58a1.94,1.94,0,0,0,1.43-.53,1.56,1.56,0,0,0,.34-.72,4.25,4.25,0,0,0,.13-.79C154.49,33.36,154.5,33,154.5,32.59Z"/><path class="cls-1" d="M160.69,33h-2.8v-.68h2.8Z"/><path class="cls-1" d="M171.08,29l-1.85,7.26h-.73l-1.61-5.81-1.61,5.81h-.73L162.7,29h.82l1.42,5.86,1.6-5.86h.7l1.6,5.86L170.26,29Z"/><path class="cls-1" d="M174.19,36.3h-.77V29h.77Z"/><path class="cls-1" d="M182.78,36.3h-.73l-3.86-5.82V36.3h-.77V29h.73l3.86,5.8V29h.77Z"/><path class="cls-1" d="M191.37,36.3h-.73l-3.86-5.82V36.3H186V29h.74l3.85,5.8V29h.78Z"/><path class="cls-1" d="M195.37,36.3h-.78V29h.78Z"/><path class="cls-1" d="M204,36.3h-.74l-3.85-5.82V36.3h-.78V29h.74l3.85,5.8V29H204Z"/><path class="cls-1" d="M212,33.65a2.62,2.62,0,0,1-.62,1.88,2.65,2.65,0,0,1-3.79.08,1.93,1.93,0,0,1-.58-1,11.84,11.84,0,0,1-.11-1.91,11.69,11.69,0,0,1,.11-1.9,1.89,1.89,0,0,1,.58-1,2.67,2.67,0,0,1,3.55-.16,2.53,2.53,0,0,1,.84,1.57h-.77a1.88,1.88,0,0,0-.62-1.08,1.71,1.71,0,0,0-1.15-.4,1.68,1.68,0,0,0-1.25.52,1.58,1.58,0,0,0-.42.81,10.48,10.48,0,0,0-.09,1.67,10.54,10.54,0,0,0,.09,1.68,1.51,1.51,0,0,0,.42.81,1.66,1.66,0,0,0,1.25.51,1.7,1.7,0,0,0,1.38-.62,2,2,0,0,0,.41-1.32v-.55h-1.79V32.5H212Z"/><path class="cls-1" d="M223.53,32.59a9.56,9.56,0,0,1-.13,1.93,2.35,2.35,0,0,1-.58,1.11,2.49,2.49,0,0,1-1.84.67h-2.49V29H221a2.53,2.53,0,0,1,1.84.67,2.18,2.18,0,0,1,.36.52,3.08,3.08,0,0,1,.21.51,2.59,2.59,0,0,1,.1.64c0,.29,0,.48,0,.57Zm-.78,0c0-.42,0-.73,0-.92a2.82,2.82,0,0,0-.12-.73,1.46,1.46,0,0,0-.34-.67,1.9,1.9,0,0,0-1.43-.53h-1.58v5.87h1.58a1.94,1.94,0,0,0,1.43-.53,1.56,1.56,0,0,0,.34-.72,3.44,3.44,0,0,0,.12-.79C222.75,33.36,222.75,33,222.75,32.59Z"/><path class="cls-1" d="M231,36.3h-4.51V29H231v.7h-3.74v2.55h3.18V33h-3.18v2.62H231Z"/><path class="cls-1" d="M238.1,34.3a1.83,1.83,0,0,1-.69,1.51,2.79,2.79,0,0,1-1.82.56,3.87,3.87,0,0,1-1.4-.23,3.12,3.12,0,0,1-1.09-.73l.53-.53a2.68,2.68,0,0,0,.89.61,2.93,2.93,0,0,0,1.09.18,2,2,0,0,0,1.25-.36,1.31,1.31,0,0,0,.11-1.89,1,1,0,0,0-.35-.22,2.94,2.94,0,0,0-.6-.13l-.84-.13a2.72,2.72,0,0,1-1.34-.55,1.72,1.72,0,0,1-.55-1.36,1.91,1.91,0,0,1,.63-1.49,2.47,2.47,0,0,1,1.7-.56,3.51,3.51,0,0,1,1.19.18,3.06,3.06,0,0,1,1,.62l-.5.5a2.41,2.41,0,0,0-1.69-.63,1.67,1.67,0,0,0-1.13.37,1.26,1.26,0,0,0-.4,1,1.08,1.08,0,0,0,.32.84,1.92,1.92,0,0,0,1,.39l.8.13a2.52,2.52,0,0,1,1.32.51A1.76,1.76,0,0,1,238.1,34.3Z"/><path class="cls-1" d="M241.61,36.3h-.77V29h.77Z"/><path class="cls-1" d="M249.66,33.65a2.66,2.66,0,0,1-.62,1.88,2.65,2.65,0,0,1-3.79.08,1.93,1.93,0,0,1-.58-1,11.84,11.84,0,0,1-.11-1.91,11.69,11.69,0,0,1,.11-1.9,1.89,1.89,0,0,1,.58-1,2.67,2.67,0,0,1,3.55-.16,2.58,2.58,0,0,1,.84,1.57h-.77a1.9,1.9,0,0,0-.63-1.08,1.79,1.79,0,0,0-2.39.12,1.58,1.58,0,0,0-.42.81,10.48,10.48,0,0,0-.09,1.67,10.54,10.54,0,0,0,.09,1.68,1.51,1.51,0,0,0,.42.81,1.64,1.64,0,0,0,1.25.51,1.7,1.7,0,0,0,1.38-.62,2,2,0,0,0,.41-1.32v-.55H247.1V32.5h2.56Z"/><path class="cls-1" d="M258,36.3h-.73l-3.86-5.82V36.3h-.77V29h.73l3.86,5.8V29H258Z"/><path class="cls-1" d="M6.21,55.3H5.15L3.22,51.54h-2V55.3H.28V46.82H3.53a2.62,2.62,0,0,1,1.82.63,2.25,2.25,0,0,1,.7,1.73,2.28,2.28,0,0,1-.5,1.5,2.35,2.35,0,0,1-1.35.77Zm-1.53-5a1.44,1.44,0,0,0,.46-1.15A1.46,1.46,0,0,0,4.68,48a1.8,1.8,0,0,0-1.23-.4H1.18v3.11H3.45A1.79,1.79,0,0,0,4.68,50.34Z"/><path class="cls-1" d="M14.9,48.84A14.11,14.11,0,0,1,15,51.06a14.11,14.11,0,0,1-.12,2.22,2.32,2.32,0,0,1-.68,1.21,3.09,3.09,0,0,1-4.34,0,2.3,2.3,0,0,1-.67-1.21,14.11,14.11,0,0,1-.12-2.22,14.11,14.11,0,0,1,.12-2.22,2.3,2.3,0,0,1,.67-1.21,3,3,0,0,1,2.17-.88,2.94,2.94,0,0,1,2.17.88A2.32,2.32,0,0,1,14.9,48.84ZM14,53a12,12,0,0,0,.11-1.95,12,12,0,0,0-.11-2,1.89,1.89,0,0,0-.49-1,2.09,2.09,0,0,0-2.93,0,1.81,1.81,0,0,0-.49,1,12,12,0,0,0-.11,2A12,12,0,0,0,10.1,53a1.81,1.81,0,0,0,.49,1,2.09,2.09,0,0,0,2.93,0A1.89,1.89,0,0,0,14,53Z"/><path class="cls-1" d="M24,48.84a14.11,14.11,0,0,1,.12,2.22A14.11,14.11,0,0,1,24,53.28a2.32,2.32,0,0,1-.68,1.21,3.09,3.09,0,0,1-4.34,0,2.3,2.3,0,0,1-.67-1.21,14.11,14.11,0,0,1-.12-2.22,14.11,14.11,0,0,1,.12-2.22,2.3,2.3,0,0,1,.67-1.21,3.12,3.12,0,0,1,4.34,0A2.32,2.32,0,0,1,24,48.84ZM23.07,53a12,12,0,0,0,.11-1.95,12,12,0,0,0-.11-2,1.89,1.89,0,0,0-.49-1,2.09,2.09,0,0,0-2.93,0,1.81,1.81,0,0,0-.49,1,12,12,0,0,0-.11,2A12,12,0,0,0,19.16,53a1.81,1.81,0,0,0,.49,1,2.09,2.09,0,0,0,2.93,0A1.89,1.89,0,0,0,23.07,53Z"/><path class="cls-1" d="M34.8,55.3h-.91V48.86L31.57,54h-.78l-2.36-5.11V55.3h-.9V46.82h.9l2.77,6,2.69-6h.91Z"/><path class="cls-1" d="M43.68,53a2.17,2.17,0,0,1-.8,1.76,3.3,3.3,0,0,1-2.13.65,4.47,4.47,0,0,1-1.64-.27,3.54,3.54,0,0,1-1.27-.86l.62-.62a3,3,0,0,0,1,.73,3.46,3.46,0,0,0,1.27.2,2.33,2.33,0,0,0,1.47-.41A1.41,1.41,0,0,0,42.77,53a1.34,1.34,0,0,0-.4-1.06,1.6,1.6,0,0,0-.42-.26,3.51,3.51,0,0,0-.69-.14l-1-.16a3.12,3.12,0,0,1-1.56-.64,2,2,0,0,1-.65-1.59,2.23,2.23,0,0,1,.74-1.74,2.85,2.85,0,0,1,2-.65,4.17,4.17,0,0,1,1.4.21,3.59,3.59,0,0,1,1.13.71l-.59.59a2.79,2.79,0,0,0-2-.73,1.89,1.89,0,0,0-1.32.43A1.5,1.5,0,0,0,39,49.11a1.2,1.2,0,0,0,.38,1,2.22,2.22,0,0,0,1.14.47l.93.14a3,3,0,0,1,1.55.6A2.07,2.07,0,0,1,43.68,53Z"/><path class="cls-1" d="M56.16,53a2.17,2.17,0,0,1-.8,1.76,3.28,3.28,0,0,1-2.13.65,4.47,4.47,0,0,1-1.64-.27,3.54,3.54,0,0,1-1.27-.86l.62-.62a3,3,0,0,0,1,.73,3.46,3.46,0,0,0,1.27.2,2.33,2.33,0,0,0,1.47-.41A1.41,1.41,0,0,0,55.25,53a1.34,1.34,0,0,0-.4-1.06,1.6,1.6,0,0,0-.42-.26,3.51,3.51,0,0,0-.69-.14l-1-.16a3.12,3.12,0,0,1-1.56-.64,2,2,0,0,1-.65-1.59,2.23,2.23,0,0,1,.74-1.74,2.85,2.85,0,0,1,2-.65,4.17,4.17,0,0,1,1.4.21,3.59,3.59,0,0,1,1.13.71l-.59.59a2.79,2.79,0,0,0-2-.73,1.89,1.89,0,0,0-1.32.43,1.5,1.5,0,0,0-.47,1.15,1.2,1.2,0,0,0,.38,1,2.22,2.22,0,0,0,1.14.47l.93.14a3,3,0,0,1,1.55.6A2.07,2.07,0,0,1,56.16,53Z"/><path class="cls-1" d="M64.31,47.63H61.85V55.3H61V47.63H58.49v-.81h5.82Z"/><path class="cls-1" d="M72.4,55.3h-1l-.68-1.92H67.05l-.68,1.92h-1l3.12-8.48h.76Zm-1.9-2.7-1.58-4.48L67.33,52.6Z"/><path class="cls-1" d="M81,55.3H80L78,51.54H76V55.3h-.9V46.82h3.25a2.62,2.62,0,0,1,1.82.63,2.48,2.48,0,0,1,.19,3.23,2.29,2.29,0,0,1-1.34.77Zm-1.53-5A1.44,1.44,0,0,0,80,49.19,1.46,1.46,0,0,0,79.48,48a1.78,1.78,0,0,0-1.22-.4H76v3.11h2.27A1.8,1.8,0,0,0,79.49,50.34Z"/><path class="cls-1" d="M89.16,47.63H86.71V55.3H85.8V47.63H83.35v-.81h5.81Z"/><path class="cls-1" d="M93,55.3h-.91V46.82H93Z"/><path class="cls-1" d="M103,55.3h-.86l-4.5-6.8v6.8h-.91V46.82h.86l4.51,6.78V46.82h.9Z"/><path class="cls-1" d="M112.41,52.2a3.12,3.12,0,0,1-.73,2.2,3.09,3.09,0,0,1-4.43.09,2.32,2.32,0,0,1-.68-1.21,14.11,14.11,0,0,1-.12-2.22,14.11,14.11,0,0,1,.12-2.22,2.32,2.32,0,0,1,.68-1.21,3.15,3.15,0,0,1,4.15-.19,3,3,0,0,1,1,1.84h-.9a2.22,2.22,0,0,0-.73-1.27,2,2,0,0,0-1.33-.45,2,2,0,0,0-1.47.6,1.81,1.81,0,0,0-.49,1,12,12,0,0,0-.11,2,12,12,0,0,0,.11,1.95,1.77,1.77,0,0,0,.49,1,1.93,1.93,0,0,0,1.47.59,2,2,0,0,0,1.6-.72,2.33,2.33,0,0,0,.48-1.54v-.64h-2.08v-.8h3Z"/><path class="cls-1" d="M125.26,47.63h-4.37v3.12h3.72v.81h-3.72V55.3H120V46.82h5.27Z"/><path class="cls-1" d="M134.15,55.3h-1.06l-1.93-3.76h-2V55.3h-.91V46.82h3.26a2.59,2.59,0,0,1,1.81.63,2.22,2.22,0,0,1,.7,1.73,2.19,2.19,0,0,1-1.85,2.27Zm-1.53-5a1.67,1.67,0,0,0,0-2.31,1.8,1.8,0,0,0-1.23-.4h-2.26v3.11h2.26A1.81,1.81,0,0,0,132.62,50.34Z"/><path class="cls-1" d="M142.83,48.84a12.69,12.69,0,0,1,.13,2.22,12.69,12.69,0,0,1-.13,2.22,2.3,2.3,0,0,1-.67,1.21,3.09,3.09,0,0,1-4.34,0,2.23,2.23,0,0,1-.67-1.21,12.69,12.69,0,0,1-.13-2.22,12.69,12.69,0,0,1,.13-2.22,2.23,2.23,0,0,1,.67-1.21,3.12,3.12,0,0,1,4.34,0A2.3,2.3,0,0,1,142.83,48.84ZM141.94,53a10.92,10.92,0,0,0,.11-1.95,10.92,10.92,0,0,0-.11-2,1.87,1.87,0,0,0-.48-1,2,2,0,0,0-3.43,1,12.32,12.32,0,0,0-.1,2A12.32,12.32,0,0,0,138,53a2,2,0,0,0,3.43,1A1.87,1.87,0,0,0,141.94,53Z"/><path class="cls-1" d="M153.67,55.3h-.9V48.86L150.44,54h-.77l-2.36-5.11V55.3h-.91V46.82h.91l2.76,6,2.7-6h.9Z"/><path class="cls-1" d="M166.94,52.88a2.2,2.2,0,0,1-.7,1.7,3.06,3.06,0,0,1-1.87.76v1.32h-1V55.38a3.92,3.92,0,0,1-2.72-1.13l.86-.84a2.86,2.86,0,0,0,2,.81V51.57l-.31,0a2.77,2.77,0,0,1-1.6-.68,2.13,2.13,0,0,1-.63-1.62,2.31,2.31,0,0,1,.65-1.7,2.74,2.74,0,0,1,1.78-.77V45.7h1v1.06a3.47,3.47,0,0,1,2.27,1l-.82.81a2.45,2.45,0,0,0-1.56-.64v2.57l.4.06a3.08,3.08,0,0,1,1.59.63A2.21,2.21,0,0,1,166.94,52.88Zm-3.44-2.51V47.89a1.47,1.47,0,0,0-.95.41,1.22,1.22,0,0,0-.34.89,1,1,0,0,0,.32.79A1.84,1.84,0,0,0,163.5,50.37Zm2.17,2.55a1.13,1.13,0,0,0-.34-.88l-.12-.1-.12-.07a.59.59,0,0,0-.14-.06l-.12,0-.14,0-.14,0-.15,0-.14,0V54.2a1.73,1.73,0,0,0,1-.4A1.11,1.11,0,0,0,165.67,52.92Z"/><path class="cls-1" d="M174.54,52.91a2.28,2.28,0,0,1-.75,1.79,2.9,2.9,0,0,1-3.73,0,2.28,2.28,0,0,1-.75-1.79,2.2,2.2,0,0,1,1.17-2,2,2,0,0,1-1-1.83,2.21,2.21,0,0,1,.7-1.7,2.75,2.75,0,0,1,3.53,0,2.18,2.18,0,0,1,.71,1.7,2,2,0,0,1-1,1.83A2.19,2.19,0,0,1,174.54,52.91Zm-1.63,1a1.34,1.34,0,0,0,.41-1,1.37,1.37,0,0,0-.41-1,1.4,1.4,0,0,0-2,0,1.36,1.36,0,0,0-.4,1,1.33,1.33,0,0,0,.4,1,1.4,1.4,0,0,0,2,0Zm-.08-3.83a1.25,1.25,0,0,0,.36-.92,1.29,1.29,0,0,0-.36-.93,1.29,1.29,0,0,0-1.81,0,1.33,1.33,0,0,0-.35.93,1.28,1.28,0,0,0,.35.92,1.29,1.29,0,0,0,1.81,0Z"/><path class="cls-1" d="M182,55.3h-4.93V54.22l3.26-4a1.73,1.73,0,0,0,.46-1.13,1.33,1.33,0,0,0-.33-.94,1.2,1.2,0,0,0-.91-.35,1.32,1.32,0,0,0-.9.32,1.27,1.27,0,0,0-.35,1h-1.22a2.29,2.29,0,0,1,.69-1.73,2.75,2.75,0,0,1,3.55,0,2.29,2.29,0,0,1,.68,1.74,2.14,2.14,0,0,1-.18.91,4.93,4.93,0,0,1-.62.92l-2.65,3.26H182Z"/><path class="cls-1" d="M194.34,47.5a2.33,2.33,0,0,1,.73,1.81,2.38,2.38,0,0,1-.73,1.82,2.65,2.65,0,0,1-1.89.68H190.2V55.3h-.91V46.82h3.16A2.61,2.61,0,0,1,194.34,47.5Zm-.66,3.07a1.62,1.62,0,0,0,.49-1.26,1.58,1.58,0,0,0-.49-1.25,1.93,1.93,0,0,0-1.32-.43H190.2V51h2.16A1.93,1.93,0,0,0,193.68,50.57Z"/><path class="cls-1" d="M203.38,55.3h-5.27V46.82h5.27v.81H199v3h3.72v.81H199v3.06h4.36Z"/><path class="cls-1" d="M212.51,55.3h-1.06l-1.93-3.76h-2V55.3h-.91V46.82h3.26a2.63,2.63,0,0,1,1.82.63,2.51,2.51,0,0,1,.19,3.23,2.29,2.29,0,0,1-1.34.77Zm-1.53-5A1.67,1.67,0,0,0,211,48a1.8,1.8,0,0,0-1.23-.4h-2.26v3.11h2.26A1.81,1.81,0,0,0,211,50.34Z"/><path class="cls-1" d="M226.13,55.3h-.85l-4.51-6.8v6.8h-.91V46.82h.86l4.51,6.78V46.82h.9Z"/><path class="cls-1" d="M230.81,55.3h-.91V46.82h.91Z"/><path class="cls-1" d="M240.21,52.2a3.08,3.08,0,0,1-.73,2.2,3.09,3.09,0,0,1-4.43.09,2.23,2.23,0,0,1-.67-1.21,12.69,12.69,0,0,1-.13-2.22,12.69,12.69,0,0,1,.13-2.22,2.23,2.23,0,0,1,.67-1.21,3.15,3.15,0,0,1,4.15-.19,3.06,3.06,0,0,1,1,1.84h-.91a2.22,2.22,0,0,0-.73-1.27,2,2,0,0,0-1.33-.45,2,2,0,0,0-1.47.6,1.89,1.89,0,0,0-.49,1,12.32,12.32,0,0,0-.1,2,12.32,12.32,0,0,0,.1,1.95,1.84,1.84,0,0,0,.49,1,1.93,1.93,0,0,0,1.47.59,2,2,0,0,0,1.61-.72,2.32,2.32,0,0,0,.47-1.54v-.64h-2.08v-.8h3Z"/><path class="cls-1" d="M249.47,55.3h-.9V51.43h-4V55.3h-.91V46.82h.91v3.8h4v-3.8h.9Z"/><path class="cls-1" d="M258.19,47.63h-2.46V55.3h-.9V47.63h-2.46v-.81h5.82Z"/></g></g></svg>